<?xml version="1.0" standalone="no"?>
<!DOCTYPE svg PUBLIC "-//W3C//DTD SVG 20010904//EN"
 "http://www.w3.org/TR/2001/REC-SVG-20010904/DTD/svg10.dtd">
<svg version="1.0" xmlns="http://www.w3.org/2000/svg"
 width="873.000000pt" height="747.000000pt" viewBox="0 0 873.000000 747.000000"
 preserveAspectRatio="xMidYMid meet">

<g transform="translate(0.000000,747.000000) scale(0.100000,-0.100000)"
fill="#000000" stroke="none">
<path d="M475 7460 c-207 -6 -234 -9 -271 -28 -56 -28 -119 -102 -143 -166
-61 -163 -66 -661 -8 -816 21 -58 126 -179 179 -206 23 -12 631 -14 4139 -14
l4111 0 73 71 c79 76 117 144 135 239 13 67 12 531 0 629 -8 59 -19 91 -52
148 -66 115 -108 128 -480 143 -262 11 -7316 11 -7683 0z"/>
<path d="M770 4399 c-370 -8 -513 -21 -580 -50 -59 -26 -75 -42 -118 -119
l-37 -65 0 -360 c0 -398 4 -429 65 -513 41 -57 124 -110 191 -122 30 -6 385
-15 789 -21 932 -13 6293 -6 6795 10 377 12 601 26 639 40 36 14 126 111 150
161 20 42 21 64 24 368 5 458 -9 521 -128 601 -34 22 -78 45 -98 51 -20 6
-185 15 -367 20 -392 11 -6841 10 -7325 -1z"/>
<path d="M595 1320 c-372 -13 -436 -31 -509 -142 -54 -81 -58 -118 -53 -485 4
-380 10 -410 83 -492 64 -71 115 -89 292 -104 110 -9 1090 -12 3927 -12 4088
0 4074 0 4183 50 75 34 117 77 144 144 21 53 22 74 26 385 4 344 -2 426 -38
496 -26 50 -105 118 -155 131 -22 6 -148 15 -280 21 -303 11 -7310 19 -7620 8z"/>
</g>
</svg>
